<svg width="35" height="35" viewBox="0 0 35 35" fill="none" xmlns="http://www.w3.org/2000/svg">
<g clip-path="url(#clip0_14_64)">
<path d="M16.625 8.75C16.1416 8.75 15.75 9.14164 15.75 9.625C15.75 10.1084 16.1416 10.5 16.625 10.5C17.1084 10.5 17.5 10.1084 17.5 9.625C17.5 9.14164 17.1084 8.75 16.625 8.75Z" fill="#84BE51"/>
<path d="M21.875 8.75C21.3916 8.75 21 9.14164 21 9.625C21 10.1084 21.3916 10.5 21.875 10.5C22.3584 10.5 22.75 10.1084 22.75 9.625C22.75 9.14164 22.3584 8.75 21.875 8.75Z" fill="#84BE51"/>
<path d="M14 25.6667H15.1667V26.8333H14V25.6667Z" fill="#84BE51"/>
<path d="M23.3335 25.6667H24.5002V26.8333H23.3335V25.6667Z" fill="#84BE51"/>
<path d="M14 33.25C14 33.4047 14.0615 33.5531 14.1709 33.6624L15.3376 34.8291C15.4469 34.9385 15.5953 35 15.75 35H22.75C22.9047 35 23.0531 34.9385 23.1624 34.8291L24.3291 33.6624C24.4385 33.5531 24.5 33.4047 24.5 33.25V28.5833C24.5 28.2612 24.2388 28 23.9167 28H14.5833C14.2612 28 14 28.2612 14 28.5833V33.25ZM15.1667 29.1667H23.3333V33.0085L22.5085 33.8333H15.9915L15.1667 33.0085V29.1667Z" fill="#84BE51"/>
<path d="M5.24986 26.25H4.66652C4.34438 26.25 4.08319 26.5112 4.08319 26.8333V32.6667C4.08319 32.9888 4.34438 33.25 4.66652 33.25H5.24986V35H6.41652V33.25H7.58319V35H8.74986V34.9598C9.87864 34.8166 10.916 34.2651 11.6665 33.4098V35H12.8332V24.5H25.6665V35H26.8332V30.9167H29.7499V35H30.9165V30.9167H31.4999C31.822 30.9167 32.0832 30.6555 32.0832 30.3333V28C32.0832 27.6779 31.822 27.4167 31.4999 27.4167H30.9165V22.1667C30.9137 19.5907 28.8259 17.5029 26.2499 17.5H23.3332V16.9879C24.305 16.0343 24.9132 14.771 25.0524 13.4167H25.0832C26.1146 13.413 27.0209 12.7314 27.3103 11.7413C28.3662 11.0198 28.8287 9.69479 28.4516 8.47286C28.0742 7.25122 26.9451 6.41752 25.6665 6.41667H25.0832V3.77942C25.0832 2.20431 24.605 1.11882 23.6197 0.461997C23.1677 0.160076 22.6365 -0.000568152 22.093 1.50981e-06H21.6567C21.1132 -0.000568152 20.582 0.160076 20.13 0.461997C19.5974 0.81832 18.9024 0.81832 18.3697 0.461997C17.9177 0.160076 17.3865 -0.000568152 16.843 1.50981e-06H16.4067C15.8632 -0.000568152 15.332 0.160076 14.88 0.461997C13.8948 1.11882 13.4165 2.20374 13.4165 3.77942V6.41667H12.8332C12.2 6.41895 11.5851 6.62915 11.0832 7.0151V3.3986C11.0806 2.49626 11.4392 1.63037 12.079 0.994061L11.2541 0.1709C10.3948 1.02539 9.91311 2.18836 9.91652 3.40031V8.16667C9.91339 8.90552 9.44655 9.56291 8.74986 9.80929V3.40031C8.74729 2.49797 9.1059 1.63208 9.74563 0.99577L8.92076 0.1709C8.06142 1.02539 7.57977 2.18836 7.58319 3.40031V9.91667H6.41652V3.40031C6.41396 2.49797 6.77256 1.63208 7.41229 0.99577L6.58742 0.1709C5.72809 1.02539 5.24644 2.18836 5.24986 3.40031V9.80929C4.55316 9.56291 4.08632 8.90552 4.08319 8.16667V3.40031C4.08063 2.49797 4.43923 1.63208 5.07896 0.99577L4.25409 0.1709C3.39475 1.02539 2.9131 2.18836 2.91652 3.40031V8.16667C2.91823 9.55209 3.89292 10.7458 5.24986 11.0249V26.25ZM6.41652 13.4167H7.58319V26.25H6.41652V13.4167ZM9.91652 28.5833H11.6665V29.75H9.91652V28.5833ZM11.6665 23.9167V27.4167H9.80914C9.63283 26.9225 9.24404 26.5337 8.74986 26.3574V22.1667C8.75299 20.4605 9.9846 19.0051 11.6665 18.7191V23.9167ZM5.83319 32.0833H5.24986V27.4167H8.16652C8.48867 27.4167 8.74986 27.6779 8.74986 28V31.5C8.74986 31.8222 8.48867 32.0833 8.16652 32.0833H5.83319ZM8.74986 33.7804V33.1426C9.44655 32.8962 9.91339 32.2389 9.91652 31.5V30.9167H11.6181C11.3666 32.3833 10.2167 33.5311 8.74986 33.7804ZM12.8332 23.3333V18.6667H13.9999V23.3333H12.8332ZM15.3414 18.6667C15.5627 19.4032 15.9874 20.0623 16.5665 20.5682L18.2208 23.3333H15.1665V18.6667H15.3414ZM19.2499 20.4167C17.6397 20.4147 16.3352 19.1102 16.3332 17.5V15.1667C16.3332 13.556 17.6391 12.25 19.2499 12.25C20.8606 12.25 22.1665 13.556 22.1665 15.1667V17.5C22.1645 19.1102 20.86 20.4147 19.2499 20.4167ZM19.9978 21.5116L19.2499 22.7773L18.4916 21.5093C18.7414 21.5577 18.9952 21.5825 19.2499 21.5833C19.5008 21.5822 19.7512 21.5583 19.9978 21.5116ZM30.9165 29.75H26.8332V28.5833H30.9165V29.75ZM29.7499 22.1667V27.4167H26.8332V18.7191C28.5151 19.0051 29.7467 20.4605 29.7499 22.1667ZM25.6665 18.6667V23.3333H24.4999V18.6667H25.6665ZM23.3332 18.6667V23.3333H20.2741L21.8882 20.6109C22.4915 20.0997 22.9339 19.4243 23.1612 18.6667H23.3332ZM23.3292 15.0903C23.2916 12.8641 21.4761 11.0793 19.2499 11.0793C17.0236 11.0793 15.2084 12.8641 15.1705 15.0903C14.7868 14.3999 14.5849 13.6232 14.5832 12.8333V7.58334H23.9165V12.8333C23.9148 13.6232 23.7129 14.3999 23.3292 15.0903ZM25.0832 12.25V9.91667C25.7275 9.91667 26.2499 10.439 26.2499 11.0833C26.2499 11.7276 25.7275 12.25 25.0832 12.25ZM25.6665 7.58334C26.2786 7.58362 26.846 7.90377 27.1627 8.42758C27.4795 8.95138 27.4997 9.6025 27.216 10.1448C26.844 9.2983 26.0078 8.75143 25.0832 8.75V7.58334H25.6665ZM15.5271 1.43327C15.7875 1.25924 16.0937 1.16638 16.4067 1.16667H16.843C17.1564 1.16638 17.4625 1.25924 17.7226 1.43327C18.6472 2.05135 19.8528 2.05135 20.7771 1.43327C21.0375 1.25924 21.3437 1.16638 21.6567 1.16667H22.093C22.4064 1.16638 22.7125 1.25924 22.9726 1.43327C23.3776 1.70272 23.9165 2.23991 23.9165 3.77942V4.08334H14.5832V3.77942C14.5832 2.23991 15.1221 1.70272 15.5271 1.43327ZM14.5832 5.25H23.9165V6.41667H14.5832V5.25ZM12.8332 7.58334H13.4165V8.75C12.4957 8.75171 11.6623 9.29488 11.2886 10.1366C10.9995 9.59652 11.0168 8.94426 11.3338 8.42017C11.6509 7.89608 12.2208 7.57792 12.8332 7.58334ZM12.2499 11.0833C12.2499 10.439 12.7722 9.91667 13.4165 9.91667V12.25C12.7722 12.25 12.2499 11.7276 12.2499 11.0833ZM10.1002 10.3331C10.309 10.901 10.6887 11.3901 11.1872 11.733C11.4734 12.7274 12.3817 13.4133 13.4165 13.4167H13.4476C13.5866 14.771 14.1947 16.0343 15.1665 16.9879V17.5H12.2499C10.9086 17.5009 9.63283 18.0805 8.74986 19.0902V11.0249C9.25344 10.9184 9.71971 10.6797 10.1002 10.3331ZM7.58319 12.25H6.41652V11.0833H7.58319V12.25Z" fill="#84BE51"/>
<path d="M18.4979 13.5916L17.6685 14.4084C18.0541 14.8867 18.6355 15.165 19.2498 15.165C19.8642 15.165 20.4456 14.8867 20.8312 14.4084L20.0018 13.5916C19.8363 13.8462 19.5535 14 19.2498 14C18.9462 14 18.6634 13.8462 18.4979 13.5916Z" fill="#84BE51"/>
</g>
<defs>
<clipPath id="clip0_14_64">
<rect width="35" height="35" fill="white"/>
</clipPath>
</defs>
</svg>
